<svg xmlns="http://www.w3.org/2000/svg" width="44" height="52" viewBox="0 0 44 52">
  <defs>
    <linearGradient id="marker-school-outstanding-a" x1="50%" x2="50%" y1="100%" y2="0%">
      <stop offset="0%"/>
      <stop offset="100%" stop-opacity="0"/>
    </linearGradient>
  </defs>
  <g fill="none" fill-rule="evenodd" transform="translate(4 5)">
    <path fill="url(#marker-school-outstanding-a)" d="M2.96181794,23.2510924 C0.911079431,20.8438856 -0.40556758,17.110698 -0.40556758,12.9193864 C-0.40556758,5.65901668 3.54524945,-0.226675861 8.41882925,-0.226675861 C13.292409,-0.226675861 17.2432261,5.65901668 17.2432261,12.9193864 C17.2432261,16.8084713 16.1096144,20.3031188 14.3077947,22.7099983 L8.52010728,36.3617404 L2.96181794,23.2510924 Z" opacity=".565" transform="rotate(38 -3.689 50.737)"/>
    <polygon fill="#FFF" points="15 28 27 47 3 47" transform="rotate(-180 15 37.5)"/>
    <path fill="#9CEC46" stroke="#FFF" stroke-width="9" d="M15.0024389,29 C23.0105678,29 29.5024389,22.5081289 29.5024389,14.5 C29.5024389,6.49187113 23.0105678,0 15.0024389,0 C6.99431002,0 0.502438896,6.49187113 0.502438896,14.5 C0.502438896,22.5081289 6.99431002,29 15.0024389,29 Z"/>
  </g>
</svg>
